<svg id="svg" version="1.1" xmlns="http://www.w3.org/2000/svg" xmlns:xlink="http://www.w3.org/1999/xlink" width="400" height="400" viewBox="0, 0, 400,400"><g id="svgg"><path id="path0" d="M90.300 75.829 L 89.200 76.426 89.200 90.389 C 89.200 101.121,89.084 104.428,88.700 104.676 C 88.425 104.854,82.033 105.058,74.496 105.128 L 60.791 105.256 60.196 106.408 C 59.704 107.359,59.600 109.829,59.600 120.566 C 59.600 133.015,59.567 133.590,58.826 133.986 C 58.339 134.247,53.298 134.400,45.212 134.400 C 34.066 134.400,32.242 134.485,31.386 135.046 L 30.400 135.692 30.400 148.966 C 30.400 158.757,30.274 162.366,29.920 162.720 C 29.564 163.076,25.636 163.200,14.720 163.200 L 0.000 163.200 0.000 178.000 L 0.000 192.800 13.574 192.800 C 32.205 192.800,30.400 194.531,30.400 176.663 C 30.400 165.198,30.474 163.657,31.033 163.443 C 31.381 163.309,37.642 163.200,44.946 163.200 L 58.228 163.200 58.914 162.038 C 59.525 161.004,59.600 159.427,59.600 147.638 L 59.600 134.400 72.529 134.400 C 83.147 134.400,85.782 134.289,87.274 133.781 L 89.090 133.162 89.345 130.722 C 89.485 129.381,89.600 123.089,89.600 116.741 L 89.600 105.199 200.100 105.299 L 310.600 105.400 310.800 119.067 C 310.910 126.584,311.090 132.815,311.200 132.913 C 312.515 134.087,313.769 134.205,327.000 134.400 L 340.600 134.600 340.800 148.239 C 340.958 158.983,341.117 162.019,341.549 162.539 C 342.040 163.130,343.536 163.200,355.625 163.200 C 366.008 163.200,369.228 163.316,369.476 163.700 C 369.654 163.975,369.890 170.201,370.000 177.535 L 370.200 190.871 371.322 191.835 L 372.445 192.800 386.222 192.800 L 400.000 192.800 400.000 178.000 L 400.000 163.200 385.633 163.200 C 377.731 163.200,370.981 163.091,370.633 162.957 C 370.073 162.743,370.000 161.171,370.000 149.386 L 370.000 136.058 368.946 135.229 C 367.929 134.429,367.437 134.400,354.979 134.400 C 347.876 134.400,341.781 134.291,341.433 134.157 C 340.874 133.943,340.800 132.394,340.799 120.857 C 340.797 108.644,340.747 107.718,340.022 106.529 L 339.246 105.257 325.643 105.129 C 315.150 105.029,311.920 104.881,311.519 104.480 C 311.117 104.076,310.983 100.853,310.925 90.107 L 310.851 76.255 309.925 75.742 C 308.427 74.910,91.835 74.996,90.300 75.829 M0.000 280.593 L 0.000 295.186 44.215 295.293 C 83.003 295.387,88.476 295.474,88.809 296.000 C 89.028 296.347,89.190 302.285,89.194 310.077 C 89.200 323.548,89.200 323.555,90.089 324.177 C 91.320 325.039,308.951 325.116,310.085 324.254 C 310.703 323.785,310.780 322.416,310.885 310.087 C 310.974 299.544,311.118 296.321,311.520 295.920 C 311.940 295.500,320.488 295.400,356.020 295.400 L 400.000 295.400 400.000 280.700 L 400.000 266.000 356.987 266.000 C 309.551 266.000,311.561 265.895,311.059 268.405 C 310.917 269.117,310.797 275.212,310.794 281.950 C 310.791 288.688,310.645 294.425,310.470 294.701 C 310.216 295.100,287.853 295.181,199.976 295.101 L 89.800 295.000 89.557 281.200 C 89.424 273.610,89.289 267.357,89.257 267.305 C 88.501 266.054,86.591 266.000,43.151 266.000 L 0.000 266.000 0.000 280.593 " stroke="none" fill="#060515" fill-rule="evenodd"></path><path id="path1" d="M145.868 75.100 C 175.605 75.157,224.385 75.157,254.268 75.100 C 284.150 75.043,259.820 74.997,200.200 74.997 C 140.580 74.997,116.130 75.043,145.868 75.100 M310.979 90.400 C 310.979 97.550,311.033 100.475,311.099 96.900 C 311.166 93.325,311.166 87.475,311.099 83.900 C 311.033 80.325,310.979 83.250,310.979 90.400 M67.100 105.099 C 70.675 105.166,76.525 105.166,80.100 105.099 C 83.675 105.033,80.750 104.979,73.600 104.979 C 66.450 104.979,63.525 105.033,67.100 105.099 M326.366 105.100 C 335.585 105.182,339.101 105.343,339.566 105.706 C 340.126 106.143,340.136 106.119,339.651 105.500 C 339.146 104.856,338.090 104.808,326.451 104.894 L 313.800 104.988 326.366 105.100 M39.100 134.299 C 42.675 134.366,48.525 134.366,52.100 134.299 C 55.675 134.233,52.750 134.179,45.600 134.179 C 38.450 134.179,35.525 134.233,39.100 134.299 M348.125 134.299 C 351.824 134.366,357.764 134.365,361.325 134.299 C 364.886 134.233,361.860 134.179,354.600 134.179 C 347.340 134.179,344.426 134.233,348.125 134.299 M397.905 163.083 C 398.402 163.179,399.122 163.175,399.505 163.075 C 399.887 162.975,399.480 162.896,398.600 162.901 C 397.720 162.905,397.407 162.987,397.905 163.083 M134.889 179.023 C 134.048 179.612,134.000 179.926,134.000 184.836 C 134.000 193.702,134.886 193.199,119.250 193.202 C 108.046 193.204,105.462 193.468,104.500 194.708 C 103.771 195.648,103.771 248.361,104.500 249.272 C 105.550 250.585,107.579 250.800,118.960 250.802 C 134.613 250.805,134.000 250.451,134.000 259.484 C 134.000 263.618,134.100 264.367,134.731 264.938 C 135.617 265.739,263.738 265.982,265.226 265.186 C 265.926 264.812,266.000 264.308,266.000 259.932 C 266.000 250.523,265.551 250.800,280.781 250.800 C 292.880 250.800,295.468 250.493,295.824 249.013 C 295.932 248.566,295.971 236.142,295.910 221.405 L 295.800 194.611 294.600 194.005 C 293.634 193.518,290.938 193.359,280.800 193.188 C 273.870 193.071,267.921 192.841,267.580 192.676 C 266.578 192.191,266.000 189.110,266.000 184.256 C 266.000 180.373,265.895 179.629,265.269 179.062 C 264.179 178.076,136.295 178.038,134.889 179.023 M21.700 295.500 C 33.745 295.559,53.455 295.559,65.500 295.500 C 77.545 295.441,67.690 295.393,43.600 295.393 C 19.510 295.393,9.655 295.441,21.700 295.500 M333.931 295.500 C 345.662 295.559,364.742 295.559,376.331 295.500 C 387.919 295.441,378.320 295.393,355.000 295.393 C 331.680 295.393,322.199 295.441,333.931 295.500 M310.979 310.400 C 310.979 317.770,311.033 320.785,311.099 317.100 C 311.165 313.415,311.165 307.385,311.099 303.700 C 311.033 300.015,310.979 303.030,310.979 310.400 M145.868 325.100 C 175.605 325.157,224.385 325.157,254.268 325.100 C 284.150 325.043,259.820 324.997,200.200 324.997 C 140.580 324.997,116.130 325.043,145.868 325.100 " stroke="none" fill="#05cb4c" fill-rule="evenodd"></path><path id="path2" d="M0.000 81.600 L 0.000 163.200 14.751 163.200 C 26.110 163.200,29.598 163.084,29.919 162.697 C 30.189 162.373,30.353 157.508,30.382 148.997 C 30.426 136.385,30.463 135.765,31.224 135.000 C 31.982 134.239,32.696 134.190,45.711 134.000 L 59.400 133.800 59.600 120.200 C 59.763 109.097,59.909 106.436,60.393 105.705 C 60.986 104.810,60.989 104.810,74.993 104.705 L 89.000 104.600 89.057 90.404 L 89.114 76.208 90.657 75.514 C 93.063 74.433,307.436 74.420,309.600 75.501 L 311.000 76.200 311.200 90.400 L 311.400 104.600 325.309 104.705 L 339.218 104.810 340.008 106.105 C 340.752 107.326,340.797 108.165,340.799 120.700 L 340.800 134.000 354.100 134.001 C 366.653 134.003,367.473 134.047,368.700 134.796 L 370.000 135.588 370.000 149.151 C 370.000 161.150,370.073 162.742,370.633 162.957 C 371.470 163.279,395.207 163.264,397.900 162.941 L 400.000 162.689 400.000 81.344 L 400.000 0.000 200.000 0.000 L 0.000 0.000 0.000 81.600 M89.600 106.667 C 89.600 107.473,89.645 108.057,89.700 107.965 C 89.755 107.872,90.329 107.212,90.975 106.498 L 92.150 105.200 90.875 105.200 C 89.674 105.200,89.600 105.285,89.600 106.667 M309.043 106.135 L 310.200 107.130 310.415 118.865 L 310.630 130.600 310.615 118.000 L 310.600 105.400 309.243 105.270 L 307.887 105.141 309.043 106.135 M89.301 131.400 C 89.305 132.280,89.387 132.593,89.483 132.095 C 89.579 131.598,89.575 130.878,89.475 130.495 C 89.375 130.113,89.296 130.520,89.301 131.400 M59.600 135.267 C 59.600 135.743,59.651 136.058,59.713 135.967 C 59.775 135.875,60.067 135.485,60.362 135.100 C 60.821 134.501,60.804 134.400,60.249 134.400 C 59.850 134.400,59.600 134.734,59.600 135.267 M339.600 134.764 C 340.105 135.106,340.234 137.241,340.414 148.285 L 340.627 161.400 340.614 148.005 C 340.600 134.925,340.581 134.608,339.800 134.484 C 339.144 134.380,339.108 134.430,339.600 134.764 M341.564 162.895 C 342.041 163.525,343.292 163.599,355.139 163.695 L 368.189 163.800 368.795 165.000 C 369.277 165.956,369.446 168.604,369.628 178.000 L 369.856 189.800 369.828 177.000 C 369.813 169.960,369.654 163.975,369.476 163.700 C 369.228 163.316,366.014 163.200,355.656 163.200 C 345.425 163.200,342.024 163.079,341.599 162.700 C 341.123 162.275,341.118 162.304,341.564 162.895 M30.900 163.465 C 30.512 163.621,30.419 166.549,30.486 176.533 L 30.572 189.400 30.788 177.400 C 30.970 167.311,31.147 164.812,31.743 163.914 C 31.774 163.866,37.740 163.726,45.000 163.603 L 58.200 163.378 44.800 163.321 C 37.430 163.289,31.175 163.354,30.900 163.465 M134.333 177.528 C 132.474 178.286,132.000 179.702,132.000 184.493 C 132.000 191.222,132.850 190.800,119.294 190.800 C 107.460 190.800,105.021 191.087,103.548 192.655 L 102.600 193.664 102.494 221.532 C 102.393 248.108,102.423 249.465,103.137 250.800 C 104.394 253.151,104.616 253.188,117.738 253.194 C 129.161 253.200,129.727 253.236,130.838 254.027 L 132.000 254.854 132.000 259.550 C 132.000 264.039,132.047 264.302,133.058 265.523 L 134.116 266.800 200.038 266.800 L 265.959 266.800 267.178 265.500 C 268.396 264.200,268.396 264.199,268.398 259.386 L 268.400 254.572 269.562 253.886 C 270.589 253.280,272.095 253.200,282.543 253.200 C 295.444 253.200,295.967 253.120,296.981 250.984 C 297.820 249.216,297.915 194.847,297.082 193.200 C 296.048 191.156,295.168 191.016,281.960 190.800 C 267.116 190.557,268.400 191.145,268.400 184.592 L 268.400 179.683 266.986 178.441 L 265.572 177.200 200.286 177.228 C 164.379 177.244,134.700 177.379,134.333 177.528 M265.269 179.062 C 265.895 179.629,266.000 180.373,266.000 184.256 C 266.000 189.110,266.578 192.191,267.580 192.676 C 267.921 192.841,273.870 193.071,280.800 193.188 C 290.938 193.359,293.634 193.518,294.600 194.005 L 295.800 194.611 295.910 221.405 C 295.971 236.142,295.932 248.566,295.824 249.013 C 295.468 250.493,292.880 250.800,280.781 250.800 C 265.551 250.800,266.000 250.523,266.000 259.932 C 266.000 264.308,265.926 264.812,265.226 265.186 C 263.738 265.982,135.617 265.739,134.731 264.938 C 134.100 264.367,134.000 263.618,134.000 259.484 C 134.000 250.451,134.613 250.805,118.960 250.802 C 107.579 250.800,105.550 250.585,104.500 249.272 C 104.111 248.786,104.000 242.718,104.000 222.000 C 104.000 201.293,104.111 195.209,104.500 194.708 C 105.462 193.468,108.046 193.204,119.250 193.202 C 134.886 193.199,134.000 193.702,134.000 184.836 C 134.000 179.926,134.048 179.612,134.889 179.023 C 136.295 178.038,264.179 178.076,265.269 179.062 M370.013 190.656 C 370.031 191.144,371.157 192.576,371.361 192.371 C 371.455 192.277,371.187 191.775,370.766 191.256 C 370.345 190.736,370.006 190.466,370.013 190.656 M13.800 192.800 L -0.200 193.016 13.600 193.102 C 21.986 193.154,27.635 193.036,28.000 192.800 C 28.330 192.587,28.420 192.451,28.200 192.498 C 27.980 192.546,21.500 192.681,13.800 192.800 M379.500 193.099 C 383.295 193.165,389.505 193.165,393.300 193.099 C 397.095 193.034,393.990 192.980,386.400 192.980 C 378.810 192.980,375.705 193.034,379.500 193.099 M89.190 268.719 L 89.383 270.600 89.519 269.047 C 89.593 268.193,89.507 267.347,89.326 267.166 C 89.145 266.985,89.084 267.684,89.190 268.719 M310.494 281.445 L 310.400 292.691 309.345 293.745 L 308.291 294.800 199.981 294.800 L 91.671 294.800 90.605 293.533 L 89.539 292.267 89.670 293.633 L 89.800 295.000 200.092 295.101 L 310.384 295.201 310.604 294.301 C 310.725 293.805,310.771 288.180,310.706 281.800 L 310.587 270.200 310.494 281.445 M0.000 347.800 L 0.000 400.000 200.000 400.000 L 400.000 400.000 400.000 347.805 L 400.000 295.610 355.700 295.705 L 311.400 295.800 311.200 309.800 L 311.000 323.800 309.600 324.501 C 307.609 325.498,91.607 325.402,90.100 324.404 L 89.200 323.808 89.200 310.336 C 89.200 302.927,89.091 296.581,88.957 296.233 C 88.738 295.661,84.436 295.600,44.357 295.600 L 0.000 295.600 0.000 347.800 " stroke="none" fill="#c3bbbb" fill-rule="evenodd"></path><path id="path3" d="M90.975 106.426 L 89.800 107.651 89.600 120.279 L 89.400 132.906 88.006 133.653 C 86.728 134.338,85.544 134.400,73.729 134.400 C 60.869 134.400,60.844 134.402,60.223 135.289 C 59.691 136.048,59.600 138.027,59.600 148.835 C 59.600 161.034,59.570 161.530,58.771 162.546 L 57.942 163.600 45.271 163.606 C 38.302 163.609,32.386 163.748,32.125 163.914 C 31.004 164.627,30.800 166.715,30.800 177.480 C 30.800 194.576,32.301 193.196,13.700 193.199 L 0.000 193.200 0.000 229.600 L 0.000 266.000 43.413 266.000 C 80.418 266.000,87.030 266.086,88.213 266.580 L 89.600 267.159 89.600 279.749 L 89.600 292.339 90.636 293.569 L 91.671 294.800 199.981 294.800 L 308.291 294.800 309.345 293.745 L 310.400 292.691 310.400 282.404 C 310.400 268.957,310.567 267.341,312.039 266.580 C 312.998 266.084,319.443 266.000,356.580 266.000 L 400.000 266.000 400.000 229.600 L 400.000 193.200 386.728 193.200 C 368.076 193.200,369.868 194.748,369.600 178.400 C 369.439 168.602,369.281 165.964,368.795 165.000 L 368.189 163.800 355.086 163.695 L 341.982 163.589 341.192 162.295 C 340.451 161.078,340.403 160.237,340.401 148.329 C 340.400 137.344,340.316 135.573,339.771 135.029 C 339.227 134.484,337.467 134.400,326.580 134.400 C 311.347 134.400,311.048 134.338,310.657 131.078 C 310.519 129.935,310.405 124.171,310.403 118.269 L 310.400 107.538 309.231 106.369 L 308.062 105.200 200.106 105.200 L 92.150 105.200 90.975 106.426 M266.986 178.441 L 268.400 179.683 268.400 184.592 C 268.400 191.145,267.116 190.557,281.960 190.800 C 295.168 191.016,296.048 191.156,297.082 193.200 C 297.915 194.847,297.820 249.216,296.981 250.984 C 295.967 253.120,295.444 253.200,282.543 253.200 C 272.095 253.200,270.589 253.280,269.562 253.886 L 268.400 254.572 268.398 259.386 C 268.396 264.199,268.396 264.200,267.178 265.500 L 265.959 266.800 200.038 266.800 L 134.116 266.800 133.058 265.523 C 132.047 264.302,132.000 264.039,132.000 259.550 L 132.000 254.854 130.838 254.027 C 129.727 253.236,129.161 253.200,117.738 253.194 C 104.616 253.188,104.394 253.151,103.137 250.800 C 102.423 249.465,102.393 248.108,102.494 221.532 L 102.600 193.664 103.548 192.655 C 105.021 191.087,107.460 190.800,119.294 190.800 C 132.850 190.800,132.000 191.222,132.000 184.493 C 132.000 179.702,132.474 178.286,134.333 177.528 C 134.700 177.379,164.379 177.244,200.286 177.228 L 265.572 177.200 266.986 178.441 " stroke="none" fill="#fb9c9b" fill-rule="evenodd"></path></g></svg>